<mxfile host="65bd71144e">
    <diagram id="8bF8J5bt0PdqWJPGgKOW" name="Aufgabe_1a">
        <mxGraphModel dx="722" dy="745" grid="1" gridSize="10" guides="1" tooltips="1" connect="1" arrows="1" fold="1" page="1" pageScale="1" pageWidth="827" pageHeight="1169" math="0" shadow="0">
            <root>
                <mxCell id="0"/>
                <mxCell id="1" parent="0"/>
                <mxCell id="2" value="Person" style="swimlane;childLayout=stackLayout;horizontal=1;startSize=30;horizontalStack=0;rounded=1;fontSize=14;fontStyle=0;strokeWidth=2;resizeParent=0;resizeLast=1;shadow=0;dashed=0;align=center;" parent="1" vertex="1">
                    <mxGeometry x="40" y="50" width="130" height="100" as="geometry"/>
                </mxCell>
                <mxCell id="3" value="+ID PK&#xA;+Vorname&#xA;+Nachname&#xA;+id_Ausweiß FK&#xA;&#xA;&#xA;" style="align=left;strokeColor=none;fillColor=none;spacingLeft=4;fontSize=12;verticalAlign=top;resizable=0;rotatable=0;part=1;" parent="2" vertex="1">
                    <mxGeometry y="30" width="130" height="70" as="geometry"/>
                </mxCell>
                <mxCell id="4" value="Ausweiß" style="swimlane;childLayout=stackLayout;horizontal=1;startSize=30;horizontalStack=0;rounded=1;fontSize=14;fontStyle=0;strokeWidth=2;resizeParent=0;resizeLast=1;shadow=0;dashed=0;align=center;" parent="1" vertex="1">
                    <mxGeometry x="300" y="50" width="130" height="100" as="geometry"/>
                </mxCell>
                <mxCell id="5" value="+ID PK&#xA;+Ausweißnr.&#xA;+Datum&#xA;+id_Person FK&#xA;&#xA;" style="align=left;strokeColor=none;fillColor=none;spacingLeft=4;fontSize=12;verticalAlign=top;resizable=0;rotatable=0;part=1;" parent="4" vertex="1">
                    <mxGeometry y="30" width="130" height="70" as="geometry"/>
                </mxCell>
                <mxCell id="8" value="" style="edgeStyle=entityRelationEdgeStyle;fontSize=12;html=1;endArrow=ERmandOne;startArrow=ERmandOne;entryX=0;entryY=0.19;entryDx=0;entryDy=0;exitX=1;exitY=0.75;exitDx=0;exitDy=0;entryPerimeter=0;" edge="1" parent="1" source="2" target="4">
                    <mxGeometry width="100" height="100" relative="1" as="geometry">
                        <mxPoint x="260" y="430" as="sourcePoint"/>
                        <mxPoint x="360" y="330" as="targetPoint"/>
                    </mxGeometry>
                </mxCell>
                <mxCell id="9" value="&lt;div&gt;&lt;font style=&quot;font-size: 18px&quot;&gt;Eine Person kann nur einen Ausweiß besitzen&lt;font size=&quot;3&quot;&gt; &lt;br&gt;&lt;/font&gt;&lt;/font&gt;&lt;/div&gt;&lt;div&gt;&lt;font style=&quot;font-size: 18px&quot;&gt;&lt;font size=&quot;3&quot;&gt;und e&lt;/font&gt;&lt;/font&gt;&lt;font size=&quot;3&quot;&gt;in Ausweiß kann nur einer Person gehöhren.&lt;br&gt;&lt;/font&gt;&lt;/div&gt;" style="text;html=1;resizable=0;autosize=1;align=center;verticalAlign=middle;points=[];fillColor=none;strokeColor=none;rounded=0;rotation=0;" vertex="1" parent="1">
                    <mxGeometry x="35" y="195" width="380" height="40" as="geometry"/>
                </mxCell>
            </root>
        </mxGraphModel>
    </diagram>
    <diagram name="Aufgabe_1b" id="bL7xpphm9A832eFLmeDP">
        <mxGraphModel dx="722" dy="745" grid="1" gridSize="10" guides="1" tooltips="1" connect="1" arrows="1" fold="1" page="1" pageScale="1" pageWidth="827" pageHeight="1169" math="0" shadow="0">
            <root>
                <mxCell id="4VwpfrwYLHQ9zOgYxA3H-0"/>
                <mxCell id="4VwpfrwYLHQ9zOgYxA3H-1" parent="4VwpfrwYLHQ9zOgYxA3H-0"/>
                <mxCell id="4VwpfrwYLHQ9zOgYxA3H-2" value="Flugzeug" style="swimlane;childLayout=stackLayout;horizontal=1;startSize=30;horizontalStack=0;rounded=1;fontSize=14;fontStyle=0;strokeWidth=2;resizeParent=0;resizeLast=1;shadow=0;dashed=0;align=center;" parent="4VwpfrwYLHQ9zOgYxA3H-1" vertex="1">
                    <mxGeometry x="300" y="50" width="130" height="90" as="geometry"/>
                </mxCell>
                <mxCell id="4VwpfrwYLHQ9zOgYxA3H-3" value="+ID PK&#xA;+Flugnr.&#xA;+id_Landeplatz FK&#xA;&#xA;&#xA;" style="align=left;strokeColor=none;fillColor=none;spacingLeft=4;fontSize=12;verticalAlign=top;resizable=0;rotatable=0;part=1;" parent="4VwpfrwYLHQ9zOgYxA3H-2" vertex="1">
                    <mxGeometry y="30" width="130" height="60" as="geometry"/>
                </mxCell>
                <mxCell id="4VwpfrwYLHQ9zOgYxA3H-4" value="Landeplatz" style="swimlane;childLayout=stackLayout;horizontal=1;startSize=30;horizontalStack=0;rounded=1;fontSize=14;fontStyle=0;strokeWidth=2;resizeParent=0;resizeLast=1;shadow=0;dashed=0;align=center;" parent="4VwpfrwYLHQ9zOgYxA3H-1" vertex="1">
                    <mxGeometry x="40" y="50" width="130" height="90" as="geometry"/>
                </mxCell>
                <mxCell id="4VwpfrwYLHQ9zOgYxA3H-5" value="+ID PK&#xA;+Ort&#xA;+id_Flugzeug FK&#xA;&#xA;" style="align=left;strokeColor=none;fillColor=none;spacingLeft=4;fontSize=12;verticalAlign=top;resizable=0;rotatable=0;part=1;" parent="4VwpfrwYLHQ9zOgYxA3H-4" vertex="1">
                    <mxGeometry y="30" width="130" height="60" as="geometry"/>
                </mxCell>
                <mxCell id="4j-rU3Kp26w9qZfqDS0A-0" value="" style="edgeStyle=entityRelationEdgeStyle;fontSize=12;html=1;endArrow=ERzeroToMany;startArrow=ERmandOne;entryX=0;entryY=0.25;entryDx=0;entryDy=0;exitX=1;exitY=0.75;exitDx=0;exitDy=0;" edge="1" parent="4VwpfrwYLHQ9zOgYxA3H-1" source="4VwpfrwYLHQ9zOgYxA3H-5" target="4VwpfrwYLHQ9zOgYxA3H-2">
                    <mxGeometry width="100" height="100" relative="1" as="geometry">
                        <mxPoint x="290" y="430" as="sourcePoint"/>
                        <mxPoint x="390" y="330" as="targetPoint"/>
                    </mxGeometry>
                </mxCell>
                <mxCell id="4j-rU3Kp26w9qZfqDS0A-1" value="&lt;div&gt;Ein Flugzeug kann (gleichzeitig) nur auf einem Landeplatz landen&lt;/div&gt;&lt;div&gt;und ein Landeplatz kann keine bis beliebig viele Flugzeuge aufnehmen.&lt;br&gt;&lt;/div&gt;" style="text;html=1;resizable=0;autosize=1;align=center;verticalAlign=middle;points=[];fillColor=none;strokeColor=none;rounded=0;fontSize=18;" vertex="1" parent="4VwpfrwYLHQ9zOgYxA3H-1">
                    <mxGeometry x="10" y="180" width="590" height="50" as="geometry"/>
                </mxCell>
            </root>
        </mxGraphModel>
    </diagram>
    <diagram name="Aufgabe_1c" id="h_CiRH4738aVnMvBg7jV">
        <mxGraphModel dx="722" dy="745" grid="1" gridSize="10" guides="1" tooltips="1" connect="1" arrows="1" fold="1" page="1" pageScale="1" pageWidth="827" pageHeight="1169" math="0" shadow="0">
            <root>
                <mxCell id="39soPZG976R_Xgz1RS7h-0"/>
                <mxCell id="39soPZG976R_Xgz1RS7h-1" parent="39soPZG976R_Xgz1RS7h-0"/>
                <mxCell id="39soPZG976R_Xgz1RS7h-9" value="&lt;div style=&quot;font-size: 27px&quot;&gt;&lt;font style=&quot;font-size: 27px&quot;&gt;1:n ist gleich n:1&lt;/font&gt;&lt;/div&gt;&lt;div style=&quot;font-size: 27px&quot;&gt;&lt;font style=&quot;font-size: 27px&quot;&gt;&lt;br&gt;&lt;/font&gt;&lt;/div&gt;&lt;div&gt;also wie Aufgabe_1b&lt;/div&gt;" style="text;html=1;resizable=0;autosize=1;align=center;verticalAlign=middle;points=[];fillColor=none;strokeColor=none;rounded=0;" parent="39soPZG976R_Xgz1RS7h-1" vertex="1">
                    <mxGeometry x="35" y="40" width="210" height="50" as="geometry"/>
                </mxCell>
            </root>
        </mxGraphModel>
    </diagram>
    <diagram name="Aufgabe_1d" id="501YtkT7q5zg2e3CCFyi">
        <mxGraphModel dx="1549" dy="745" grid="1" gridSize="10" guides="1" tooltips="1" connect="1" arrows="1" fold="1" page="1" pageScale="1" pageWidth="827" pageHeight="1169" math="0" shadow="0">
            <root>
                <mxCell id="BPjVhRcj5HegYCOqcYRo-0"/>
                <mxCell id="BPjVhRcj5HegYCOqcYRo-1" parent="BPjVhRcj5HegYCOqcYRo-0"/>
                <mxCell id="Pk5V0fKgPI2hLqhdxe8j-2" value="Kunde" style="swimlane;childLayout=stackLayout;horizontal=1;startSize=30;horizontalStack=0;rounded=1;fontSize=14;fontStyle=0;strokeWidth=2;resizeParent=0;resizeLast=1;shadow=0;dashed=0;align=center;" vertex="1" parent="BPjVhRcj5HegYCOqcYRo-1">
                    <mxGeometry x="50" y="80" width="160" height="90" as="geometry"/>
                </mxCell>
                <mxCell id="Pk5V0fKgPI2hLqhdxe8j-3" value="+ID PK&#xA;+Tischnr.&#xA;+id_Gericht FK&#xA;" style="align=left;strokeColor=none;fillColor=none;spacingLeft=4;fontSize=12;verticalAlign=top;resizable=0;rotatable=0;part=1;" vertex="1" parent="Pk5V0fKgPI2hLqhdxe8j-2">
                    <mxGeometry y="30" width="160" height="60" as="geometry"/>
                </mxCell>
                <mxCell id="Pk5V0fKgPI2hLqhdxe8j-4" value="Gericht" style="swimlane;childLayout=stackLayout;horizontal=1;startSize=30;horizontalStack=0;rounded=1;fontSize=14;fontStyle=0;strokeWidth=2;resizeParent=0;resizeLast=1;shadow=0;dashed=0;align=center;" vertex="1" parent="BPjVhRcj5HegYCOqcYRo-1">
                    <mxGeometry x="360" y="80" width="160" height="90" as="geometry"/>
                </mxCell>
                <mxCell id="Pk5V0fKgPI2hLqhdxe8j-5" value="+ID PK&#xA;+Zutaten&#xA;+id_Kunde FK" style="align=left;strokeColor=none;fillColor=none;spacingLeft=4;fontSize=12;verticalAlign=top;resizable=0;rotatable=0;part=1;" vertex="1" parent="Pk5V0fKgPI2hLqhdxe8j-4">
                    <mxGeometry y="30" width="160" height="60" as="geometry"/>
                </mxCell>
                <mxCell id="Pk5V0fKgPI2hLqhdxe8j-9" value="&lt;div&gt;Ein Kunde kann keins oder beliebige Anzahl des Gerichts bestellen,&lt;/div&gt;&lt;div&gt;und ein Gericht kann von keinem oder beliebig vielen Kunden bestellt worden sein.&lt;br&gt;&lt;/div&gt;" style="text;html=1;resizable=0;autosize=1;align=center;verticalAlign=middle;points=[];fillColor=none;strokeColor=none;rounded=0;fontSize=18;" vertex="1" parent="BPjVhRcj5HegYCOqcYRo-1">
                    <mxGeometry x="-5" y="210" width="680" height="50" as="geometry"/>
                </mxCell>
                <mxCell id="Pk5V0fKgPI2hLqhdxe8j-10" value="" style="edgeStyle=entityRelationEdgeStyle;fontSize=12;html=1;endArrow=ERzeroToMany;endFill=1;startArrow=ERzeroToMany;exitX=1;exitY=0.75;exitDx=0;exitDy=0;entryX=-0.006;entryY=0.178;entryDx=0;entryDy=0;entryPerimeter=0;" edge="1" parent="BPjVhRcj5HegYCOqcYRo-1" source="Pk5V0fKgPI2hLqhdxe8j-3" target="Pk5V0fKgPI2hLqhdxe8j-4">
                    <mxGeometry width="100" height="100" relative="1" as="geometry">
                        <mxPoint x="290" y="430" as="sourcePoint"/>
                        <mxPoint x="390" y="330" as="targetPoint"/>
                    </mxGeometry>
                </mxCell>
            </root>
        </mxGraphModel>
    </diagram>
    <diagram name="Aufgabe_1e" id="yupVls34_xUEB1TCzymE">
        <mxGraphModel dx="722" dy="745" grid="1" gridSize="10" guides="1" tooltips="1" connect="1" arrows="1" fold="1" page="1" pageScale="1" pageWidth="827" pageHeight="1169" math="0" shadow="0">
            <root>
                <mxCell id="nBTT0-i10sxPqewBsnjJ-0"/>
                <mxCell id="nBTT0-i10sxPqewBsnjJ-1" parent="nBTT0-i10sxPqewBsnjJ-0"/>
                <mxCell id="nBTT0-i10sxPqewBsnjJ-3" value="Mitarbeiter" style="swimlane;childLayout=stackLayout;horizontal=1;startSize=30;horizontalStack=0;rounded=1;fontSize=14;fontStyle=0;strokeWidth=2;resizeParent=0;resizeLast=1;shadow=0;dashed=0;align=center;" parent="nBTT0-i10sxPqewBsnjJ-1" vertex="1">
                    <mxGeometry x="40" y="50" width="170" height="130" as="geometry"/>
                </mxCell>
                <mxCell id="uUIrrCx_qkhMdOPj7oOR-1" value="&lt;div align=&quot;left&quot;&gt;&lt;font style=&quot;font-size: 12px&quot;&gt;+ID PK&lt;br&gt;&lt;/font&gt;&lt;/div&gt;&lt;div align=&quot;left&quot;&gt;&lt;font style=&quot;font-size: 12px&quot;&gt;+Name&lt;/font&gt;&lt;/div&gt;&lt;div align=&quot;left&quot;&gt;&lt;font style=&quot;font-size: 12px&quot;&gt;+id_Vorgesetzter FK&lt;/font&gt;&lt;/div&gt;&lt;div align=&quot;left&quot;&gt;&lt;font style=&quot;font-size: 12px&quot;&gt;+id_unterstellteMitarbeiter FK&lt;br&gt;&lt;/font&gt;&lt;/div&gt;" style="text;html=1;align=left;verticalAlign=middle;resizable=0;points=[];autosize=1;strokeColor=none;fillColor=none;fontSize=18;" vertex="1" parent="nBTT0-i10sxPqewBsnjJ-3">
                    <mxGeometry y="30" width="170" height="100" as="geometry"/>
                </mxCell>
                <mxCell id="nBTT0-i10sxPqewBsnjJ-7" value="" style="shape=link;html=1;rounded=0;exitX=1;exitY=0.25;exitDx=0;exitDy=0;entryX=1;entryY=0.75;entryDx=0;entryDy=0;" parent="nBTT0-i10sxPqewBsnjJ-1" source="nBTT0-i10sxPqewBsnjJ-3" target="nBTT0-i10sxPqewBsnjJ-3" edge="1">
                    <mxGeometry relative="1" as="geometry">
                        <mxPoint x="320" y="150" as="sourcePoint"/>
                        <mxPoint x="220" y="100" as="targetPoint"/>
                        <Array as="points">
                            <mxPoint x="270" y="83"/>
                            <mxPoint x="270" y="148"/>
                        </Array>
                    </mxGeometry>
                </mxCell>
                <mxCell id="nBTT0-i10sxPqewBsnjJ-8" value="M" style="resizable=0;html=1;align=left;verticalAlign=bottom;" parent="nBTT0-i10sxPqewBsnjJ-7" connectable="0" vertex="1">
                    <mxGeometry x="-1" relative="1" as="geometry"/>
                </mxCell>
                <mxCell id="nBTT0-i10sxPqewBsnjJ-9" value="N" style="resizable=0;html=1;align=right;verticalAlign=bottom;" parent="nBTT0-i10sxPqewBsnjJ-7" connectable="0" vertex="1">
                    <mxGeometry x="1" relative="1" as="geometry"/>
                </mxCell>
                <mxCell id="uUIrrCx_qkhMdOPj7oOR-0" value="&lt;div&gt;Ein Mitarbeiter hat einen oder viele Vorgesetzte, &lt;br&gt;&lt;/div&gt;&lt;div&gt;die wiederum selbst Mitarbeiter sind. Die Vorgesetzte &lt;br&gt;&lt;/div&gt;&lt;div&gt;haben einen oder viele unterstellte Mitarbeiter.&lt;br&gt;&lt;/div&gt;" style="text;html=1;resizable=0;autosize=1;align=center;verticalAlign=middle;points=[];fillColor=none;strokeColor=none;rounded=0;fontSize=18;" vertex="1" parent="nBTT0-i10sxPqewBsnjJ-1">
                    <mxGeometry y="190" width="440" height="70" as="geometry"/>
                </mxCell>
            </root>
        </mxGraphModel>
    </diagram>
</mxfile>